# xmcd CD database file
#
# Track frame offsets:
#	150
#	18201
#	48127
#	68019
#	93415
#	105857
#	130958
#	148526
#	164376
#	193074
#	241224
#
# Disc length: 3495 seconds
#
# Revision: 4
# Processed by: cddbd v1.4PL0 Copyright (c) Steve Scherf et al.
# Submitted via: CDex 1.40Beta9
#
DISCID=860da50b
DTITLE=The Hoax - Humdinger
DYEAR=1998
DGENRE=Blues
TTITLE0=High Expectations
TTITLE1=Feeding Time
TTITLE2=Last Man Down
TTITLE3=Superstition
TTITLE4=Something Out Of Nothing
TTITLE5=Groove Breaker
TTITLE6=I Want To Te Loved
TTITLE7=Long Way Home
TTITLE8=Bones
TTITLE9=Don't Shake My Hand
TTITLE10=Uncredited
EXTD=YEAR: 1998 ID3G: 0
EXTT0=
EXTT1=
EXTT2=
EXTT3=
EXTT4=
EXTT5=
EXTT6=
EXTT7=
EXTT8=
EXTT9=
EXTT10=
PLAYORDER=
